<svg id="Layer_1" data-name="Layer 1" xmlns="http://www.w3.org/2000/svg" viewBox="0 0 94 38.87"><defs><style>.cls-1{fill:#4189ef;}</style></defs><path class="cls-1" d="M7.55,33.34A5.26,5.26,0,0,0,4.44,36c-.33.66-.33,1.44-.44,13.53,0,8.2,0,13.08.11,13.53A3.94,3.94,0,0,0,5,64.5l.77.67,11.65.11H29.06l.23-.78a7.12,7.12,0,0,1,3.21-3.33,6.66,6.66,0,0,1,7.21,1.22,5.6,5.6,0,0,1,1.22,1.89l.44,1.11H50.8l.22-.67c.78-2.44,3.88-4.32,6.55-4.1a6.54,6.54,0,0,1,5.21,3.88l.33.89H97.49l.33-.45c.34-.55.22-1.11-.55-1.55a34.92,34.92,0,0,0-5.21-.22H87.29l.44-.78c.33-.77.44-1.11.44-5.32,0-4,0-4.66-.33-5.21S81.63,43.21,79.3,40.1A17.41,17.41,0,0,0,70.43,34l-1.77-.55-30.28-.22C21.74,33.23,7.88,33.34,7.55,33.34ZM25,37.88l.56.45V62.06L25,62.5c-.55.45-.66.45-3.88.45s-3.33,0-3.77-.56L16.75,62V50.3c0-9,.11-11.86.23-12.08.55-.67,1-.78,4.21-.78S24.41,37.44,25,37.88Zm31.5,3.44.55.44V48.2l-.55.44-.56.44H33.39L33,48.53c-.45-.44-.56-.55-.56-3.66s0-3.22.56-3.66l.44-.55h22.4Zm18-.22c.67.55.78,1.11.78,4s-.11,3.44-.78,4c-.22.23-1.88.23-6.43.23H62l-.55-.67c-.56-.55-.56-.66-.56-3.55s0-3,.56-3.55l.55-.66h6C72.43,40.88,74.2,40.88,74.42,41.1ZM14.31,61.28,14.2,63H6.88l-.11-1.33V60c.11-.22.89-.22,3.88-.22h3.77Z" transform="translate(-4 -33.23)"/><path class="cls-1" d="M19.86,40.21a3,3,0,0,0-1.44,3A2.9,2.9,0,0,0,23,45.09C25.74,43,22.85,38.55,19.86,40.21Z" transform="translate(-4 -33.23)"/><path class="cls-1" d="M33.83,61.73a5.27,5.27,0,0,0-3,2.44,4.71,4.71,0,0,0-.67,2.33,3.46,3.46,0,0,0,.45,2.44A5.68,5.68,0,0,0,35.39,72a5.54,5.54,0,0,0,4.76-3.1,6.84,6.84,0,0,0,.23-4,5.94,5.94,0,0,0-3.33-3.21A5.2,5.2,0,0,0,33.83,61.73Zm3.33,2.44a4.06,4.06,0,0,1,1.33,2.66,3.71,3.71,0,0,1-1.55,2.66,3.07,3.07,0,0,1-3.22-.11,2.79,2.79,0,0,1-1.44-2.66,2.7,2.7,0,0,1,1.55-2.66,2.26,2.26,0,0,1,1.78-.45A5.08,5.08,0,0,1,37.16,64.17Z" transform="translate(-4 -33.23)"/><path class="cls-1" d="M34.39,65.72a1.46,1.46,0,0,0,1.55,2.44,1.58,1.58,0,0,0,.67-1.77A1.28,1.28,0,0,0,34.39,65.72Z" transform="translate(-4 -33.23)"/><path class="cls-1" d="M55.35,61.84a5.16,5.16,0,0,0-3.44,3.66A5.25,5.25,0,0,0,57.68,72a5.61,5.61,0,0,0,4.54-5.77A5.24,5.24,0,0,0,55.35,61.84Zm3.32,2.22a3.21,3.21,0,0,1,0,5.43,3.46,3.46,0,0,1-4.43-1,3.69,3.69,0,0,1,.22-3.55A3.4,3.4,0,0,1,58.67,64.06Z" transform="translate(-4 -33.23)"/><path class="cls-1" d="M56,65.83a1.54,1.54,0,0,0-.55,1A1.89,1.89,0,0,0,57,68.38a1.55,1.55,0,1,0,0-3.1A1.54,1.54,0,0,0,56,65.83Z" transform="translate(-4 -33.23)"/></svg>