<?xml version="1.0" encoding="UTF-8"?> <svg xmlns="http://www.w3.org/2000/svg" width="277" height="36" viewBox="0 0 277 36" fill="none"><path d="M3.23023 0.436235C1.98239 0.834099 1.04199 1.61174 0.409022 2.80533C0.0834977 3.40212 0.0654131 4.12551 0.0111591 14.9763C-0.0250103 22.3729 0.0292437 26.7494 0.137752 27.1835C0.24626 27.5632 0.626038 28.142 0.969647 28.4856L1.6207 29.1185L12.1641 29.1728L22.7074 29.209L22.9064 28.5037C23.2138 27.4909 24.5701 26.0622 25.7999 25.4654C27.8796 24.4527 30.5743 24.9229 32.2561 26.5867C32.6359 26.9665 33.1423 27.7079 33.3774 28.2505L33.8114 29.209H38.0432H42.257L42.474 28.5941C43.2154 26.3516 45.9643 24.6516 48.4238 24.941C50.4493 25.1761 52.3301 26.5686 53.0897 28.3951L53.4152 29.209H68.9138H84.4304L84.7017 28.7749C85.0453 28.2686 84.8645 27.726 84.2496 27.4005C84.0506 27.292 82.1879 27.2196 79.5476 27.2196H75.2072L75.5689 26.4963C75.8945 25.8452 75.9306 25.4473 75.9306 21.6676C75.9306 18.0869 75.8945 17.4539 75.6051 16.9475C75.2796 16.3327 70.0169 9.11688 67.9191 6.38609C65.8213 3.65531 63.3256 1.93726 59.9257 0.870268L58.2981 0.363897L30.9902 0.327728C15.9799 0.309643 3.48342 0.363897 3.23023 0.436235ZM18.9096 4.50529L19.416 4.93932V15.6454V26.3516L18.9096 26.7856C18.4214 27.2016 18.3129 27.2196 15.4193 27.2196C12.4896 27.2196 12.4353 27.2196 12.0013 26.7675L11.5492 26.3335V15.6997C11.5673 7.61585 11.6215 4.99357 11.7843 4.77656C12.2545 4.16168 12.7247 4.08934 15.564 4.07125C18.3129 4.07125 18.4214 4.08934 18.9096 4.50529ZM47.3026 7.57968L47.809 8.01371V10.9434V13.8731L47.3026 14.3072L46.7962 14.7412H36.6688H26.5414L26.1073 14.2891C25.6733 13.8551 25.6552 13.8008 25.6552 10.9434C25.6552 8.08605 25.6733 8.0318 26.1073 7.59777L26.5414 7.14565H36.6688H46.7962L47.3026 7.57968ZM63.4703 7.38075C64.0671 7.83287 64.1756 8.37541 64.1756 10.9434C64.1756 13.5115 64.0671 14.054 63.4703 14.5061C63.2533 14.6689 61.7342 14.7231 57.7194 14.7412H52.2759L51.8057 14.1806C51.3535 13.638 51.3355 13.5657 51.3355 10.9434C51.3355 8.32115 51.3535 8.24882 51.8057 7.70628L52.2759 7.14565H57.7194C61.7342 7.16373 63.2533 7.21799 63.4703 7.38075ZM9.34285 25.6282L9.2886 27.1292H5.94293H2.59727L2.54301 25.8814C2.50684 25.1942 2.52493 24.525 2.57918 24.3803C2.65152 24.1995 3.37491 24.1452 6.03336 24.1452H9.39711L9.34285 25.6282Z" fill="#4189EF"></path><path d="M14.2617 6.5671C13.3936 7.01922 12.7425 8.30323 12.9234 9.22555C13.267 11.1244 15.4552 12.0106 17.0286 10.9074C19.5786 9.09895 17.0467 5.12033 14.2617 6.5671Z" fill="#4189EF"></path><path d="M26.8668 26.026C25.7998 26.3154 24.8232 27.093 24.136 28.1781C23.7381 28.8292 23.5935 29.3175 23.5211 30.294C23.4488 31.3972 23.503 31.6685 23.919 32.5365C24.7328 34.1822 26.5051 35.3577 28.187 35.3577C29.8508 35.3577 31.7677 34.1099 32.5092 32.5546C32.9432 31.6323 33.0156 30.1132 32.672 28.9558C32.3464 27.8526 30.8454 26.4239 29.6337 26.0622C28.4944 25.7186 28.0423 25.7186 26.8668 26.026ZM29.8688 28.2143C30.4656 28.6664 31.0805 29.86 31.0805 30.6015C31.0805 31.4153 30.3571 32.645 29.6337 33.0248C28.7476 33.495 27.4817 33.4769 26.7402 32.9525C25.7455 32.2833 25.4019 31.6685 25.4019 30.5653C25.4019 29.4621 25.7274 28.8473 26.7583 28.16C27.2646 27.7983 27.554 27.7441 28.3678 27.7983C28.9827 27.8345 29.5614 28.0154 29.8688 28.2143Z" fill="#4189EF"></path><path d="M27.3913 29.5886C26.1977 30.529 27.3732 32.3555 28.82 31.813C29.3263 31.6141 29.6519 30.746 29.4529 30.1854C29.0732 29.1907 28.2051 28.9375 27.3913 29.5886Z" fill="#4189EF"></path><path d="M46.3444 26.0983C44.7167 26.677 43.7402 27.7078 43.27 29.3535C42.3296 32.5364 45.1869 35.7736 48.4964 35.2853C50.9198 34.9236 52.8187 32.4641 52.5474 30.0769C52.1857 27.0749 49.1113 25.1036 46.3444 26.0983ZM49.3102 28.1238C51.0645 29.2089 51.0645 31.9216 49.3102 33.0066C48.0262 33.7843 46.1635 33.3322 45.3497 32.0662C44.8614 31.2705 44.9337 29.6971 45.5125 28.9014C46.3082 27.7802 48.1347 27.4185 49.3102 28.1238Z" fill="#4189EF"></path><path d="M46.9048 29.6611C46.6516 29.8962 46.4526 30.3121 46.4526 30.5653C46.4526 31.1621 47.2122 31.9217 47.809 31.9217C48.4058 31.9217 49.1653 31.1621 49.1653 30.5653C49.1653 29.9685 48.4058 29.209 47.809 29.209C47.5558 29.209 47.1399 29.4079 46.9048 29.6611Z" fill="#4189EF"></path><path d="M102.548 26.6305C101.023 26.6305 99.8558 26.1962 99.0452 25.3277C98.2539 24.4593 97.8583 23.2337 97.8583 21.6512V10.7662C97.8583 9.18362 98.2539 7.95809 99.0452 7.08961C99.8558 6.22113 101.023 5.78689 102.548 5.78689C104.073 5.78689 105.231 6.22113 106.022 7.08961C106.833 7.95809 107.238 9.18362 107.238 10.7662V12.9084H104.227V10.5635C104.227 9.30907 103.696 8.68183 102.635 8.68183C101.573 8.68183 101.043 9.30907 101.043 10.5635V21.8828C101.043 23.1179 101.573 23.7355 102.635 23.7355C103.696 23.7355 104.227 23.1179 104.227 21.8828V18.7852H107.238V21.6512C107.238 23.2337 106.833 24.4593 106.022 25.3277C105.231 26.1962 104.073 26.6305 102.548 26.6305ZM111.604 6.07638H115.917L119.218 26.341H116.033L115.454 22.317V22.3749H111.835L111.256 26.341H108.304L111.604 6.07638ZM115.078 19.6247L113.659 9.60821H113.601L112.212 19.6247H115.078ZM120.762 6.07638H125.481C127.122 6.07638 128.318 6.46237 129.071 7.23436C129.824 7.98704 130.2 9.15467 130.2 10.7372V11.9821C130.2 14.0857 129.505 15.4174 128.116 15.9771V16.035C128.888 16.2666 129.428 16.7394 129.737 17.4535C130.065 18.1676 130.229 19.1229 130.229 20.3195V23.8803C130.229 24.4593 130.248 24.9321 130.287 25.2988C130.325 25.6462 130.422 25.9936 130.576 26.341H127.334C127.218 26.0129 127.141 25.7041 127.102 25.4146C127.064 25.1251 127.045 24.604 127.045 23.8513V20.1458C127.045 19.2194 126.89 18.5729 126.581 18.2062C126.292 17.8395 125.78 17.6561 125.047 17.6561H123.947V26.341H120.762V6.07638ZM125.105 14.7612C125.742 14.7612 126.215 14.5972 126.523 14.2691C126.852 13.941 127.016 13.3909 127.016 12.6189V11.0557C127.016 10.3223 126.88 9.79156 126.61 9.46346C126.359 9.13537 125.954 8.97132 125.394 8.97132H123.947V14.7612H125.105ZM134.899 6.07638H139.213L142.513 26.341H139.328L138.749 22.317V22.3749H135.131L134.552 26.341H131.599L134.899 6.07638ZM138.373 19.6247L136.954 9.60821H136.897L135.507 19.6247H138.373ZM142.398 6.07638H145.612L147.696 21.7959H147.754L149.838 6.07638H152.762L149.694 26.341H145.467L142.398 6.07638ZM155.933 6.07638H160.246L163.546 26.341H160.362L159.783 22.317V22.3749H156.164L155.585 26.341H152.632L155.933 6.07638ZM159.407 19.6247L157.988 9.60821H157.93L156.541 19.6247H159.407ZM165.091 6.07638H169.086L172.184 18.2062H172.242V6.07638H175.079V26.341H171.808L167.986 11.5478H167.928V26.341H165.091V6.07638Z" fill="#192B46"></path><path d="M186.569 26.6305C185.045 26.6305 183.877 26.1962 183.066 25.3277C182.275 24.4593 181.879 23.2337 181.879 21.6512V10.7662C181.879 9.18362 182.275 7.95809 183.066 7.08961C183.877 6.22113 185.045 5.78689 186.569 5.78689C188.094 5.78689 189.252 6.22113 190.043 7.08961C190.854 7.95809 191.259 9.18362 191.259 10.7662V12.9084H188.248V10.5635C188.248 9.30907 187.718 8.68183 186.656 8.68183C185.595 8.68183 185.064 9.30907 185.064 10.5635V21.8828C185.064 23.1179 185.595 23.7355 186.656 23.7355C187.718 23.7355 188.248 23.1179 188.248 21.8828V18.7852H191.259V21.6512C191.259 23.2337 190.854 24.4593 190.043 25.3277C189.252 26.1962 188.094 26.6305 186.569 26.6305ZM197.824 26.6305C196.261 26.6305 195.064 26.1866 194.234 25.2988C193.404 24.411 192.989 23.1565 192.989 21.5354V10.882C192.989 9.26082 193.404 8.00634 194.234 7.11856C195.064 6.23078 196.261 5.78689 197.824 5.78689C199.387 5.78689 200.584 6.23078 201.414 7.11856C202.243 8.00634 202.658 9.26082 202.658 10.882V21.5354C202.658 23.1565 202.243 24.411 201.414 25.2988C200.584 26.1866 199.387 26.6305 197.824 26.6305ZM197.824 23.7355C198.924 23.7355 199.474 23.0697 199.474 21.738V10.6793C199.474 9.34767 198.924 8.68183 197.824 8.68183C196.724 8.68183 196.174 9.34767 196.174 10.6793V21.738C196.174 23.0697 196.724 23.7355 197.824 23.7355ZM204.812 6.07638H208.807L211.905 18.2062H211.962V6.07638H214.799V26.341H211.528L207.707 11.5478H207.649V26.341H204.812V6.07638ZM221.653 26.6305C220.129 26.6305 218.961 26.1962 218.151 25.3277C217.359 24.4593 216.964 23.2337 216.964 21.6512V10.7662C216.964 9.18362 217.359 7.95809 218.151 7.08961C218.961 6.22113 220.129 5.78689 221.653 5.78689C223.178 5.78689 224.336 6.22113 225.127 7.08961C225.938 7.95809 226.343 9.18362 226.343 10.7662V12.9084H223.333V10.5635C223.333 9.30907 222.802 8.68183 221.74 8.68183C220.679 8.68183 220.148 9.30907 220.148 10.5635V21.8828C220.148 23.1179 220.679 23.7355 221.74 23.7355C222.802 23.7355 223.333 23.1179 223.333 21.8828V18.7852H226.343V21.6512C226.343 23.2337 225.938 24.4593 225.127 25.3277C224.336 26.1962 223.178 26.6305 221.653 26.6305ZM228.249 6.07638H231.433V26.341H228.249V6.07638ZM233.818 6.07638H242.503V8.97132H237.002V14.327H241.374V17.2219H237.002V23.446H242.503V26.341H233.818V6.07638ZM244.335 6.07638H249.053C250.694 6.07638 251.89 6.46237 252.643 7.23436C253.396 7.98704 253.772 9.15467 253.772 10.7372V11.9821C253.772 14.0857 253.077 15.4174 251.688 15.9771V16.035C252.46 16.2666 253 16.7394 253.309 17.4535C253.637 18.1676 253.801 19.1229 253.801 20.3195V23.8803C253.801 24.4593 253.82 24.9321 253.859 25.2988C253.898 25.6462 253.994 25.9936 254.149 26.341H250.906C250.79 26.0129 250.713 25.7041 250.675 25.4146C250.636 25.1251 250.617 24.604 250.617 23.8513V20.1458C250.617 19.2194 250.462 18.5729 250.153 18.2062C249.864 17.8395 249.353 17.6561 248.619 17.6561H247.519V26.341H244.335V6.07638ZM248.677 14.7612C249.314 14.7612 249.787 14.5972 250.096 14.2691C250.424 13.941 250.588 13.3909 250.588 12.6189V11.0557C250.588 10.3223 250.453 9.79156 250.182 9.46346C249.932 9.13537 249.526 8.97132 248.967 8.97132H247.519V14.7612H248.677ZM260.527 26.6305C258.983 26.6305 257.805 26.1962 256.995 25.3277C256.184 24.44 255.779 23.1758 255.779 21.5354V10.882C255.779 9.24152 256.184 7.98704 256.995 7.11856C257.805 6.23078 258.983 5.78689 260.527 5.78689C262.071 5.78689 263.248 6.23078 264.058 7.11856C264.869 7.98704 265.274 9.24152 265.274 10.882V12.6189H262.264V10.6793C262.264 9.34767 261.714 8.68183 260.614 8.68183C259.513 8.68183 258.963 9.34767 258.963 10.6793V21.767C258.963 23.0793 259.513 23.7355 260.614 23.7355C261.714 23.7355 262.264 23.0793 262.264 21.767V17.8009H260.671V14.906H265.274V21.5354C265.274 23.1758 264.869 24.44 264.058 25.3277C263.248 26.1962 262.071 26.6305 260.527 26.6305ZM267.319 6.07638H276.004V8.97132H270.503V14.327H274.875V17.2219H270.503V23.446H276.004V26.341H267.319V6.07638Z" fill="#4189EF"></path></svg> 